<svg width="136" height="35" viewBox="0 0 136 35" fill="none" xmlns="http://www.w3.org/2000/svg">
<path fill-rule="evenodd" clip-rule="evenodd" d="M52.1801 10.4302L51.042 9.57666L51.536 9.05361C51.5032 8.2128 51.8897 7.21187 52.626 6.3819C53.4334 5.47188 54.4952 4.95509 55.3888 4.97413L55.8788 4.45532L56.7324 5.5934L56.7169 5.60979C57.3786 6.48825 57.1154 8.07174 55.9777 9.35455C54.7716 10.7133 53.114 11.1371 52.1841 10.4259L52.1801 10.4302Z" fill="#B9B9B9"/>
<path d="M55.1998 8.55708C56.4929 7.09956 56.7461 5.21261 55.7653 4.34245C54.7846 3.4723 52.9412 3.94845 51.6481 5.40597C50.3549 6.86349 50.1017 8.75045 51.0825 9.6206C52.0633 10.4908 53.9066 10.0146 55.1998 8.55708Z" fill="url(#paint0_linear_5815_236)"/>
<path d="M55.2173 8.573C56.5025 7.12441 56.7413 5.2376 55.7506 4.35868C54.76 3.47977 52.915 3.94157 51.6298 5.39016C50.3446 6.83875 50.1058 8.72556 51.0965 9.60448C52.0871 10.4834 53.932 10.0216 55.2173 8.573Z" fill="white"/>
<path d="M13.5044 17.5952L26.1052 4.09424H19.4042L6.02155 18.1517V4.09424H0V32.0476H6.02155V25.457L9.53935 21.8061L17.919 32.0476H24.9899L14.3568 18.6684L13.5044 17.5941V17.5952Z" fill="white"/>
<path d="M45.524 16.5175C43.6507 13.546 40.2137 11.708 36.0233 11.708C31.545 11.708 27.9089 13.8089 26.1357 17.1378C25.3698 18.5638 24.9521 20.2197 24.9521 22.0281C24.9521 28.0621 29.6251 32.3481 36.0233 32.3481C42.4216 32.3481 47.0593 28.0621 47.0593 22.0281C47.0593 19.9488 46.5073 18.0755 45.524 16.5175ZM36.0233 27.5785C33.1053 27.5785 30.8599 25.4924 30.8599 22.0281C30.8599 19.0486 32.5169 17.0888 34.8375 16.5995C35.2164 16.5164 35.6136 16.4754 36.0233 16.4754C36.3113 16.4754 36.5878 16.4936 36.8598 16.538C39.3511 16.8976 41.1481 18.9018 41.1481 22.0281C41.1481 25.4924 38.9425 27.5785 36.0245 27.5785H36.0233Z" fill="white"/>
<path d="M56.7841 12.006H50.9492V32.0486H56.7841V12.006Z" fill="white"/>
<path d="M74.443 11.708C71.7116 11.708 69.3546 12.6412 67.7841 14.3529V12.0062H62.2109V32.0488H68.0447V22.1385C68.0447 20.6817 68.3588 19.5334 68.9176 18.681C69.7643 17.3665 71.1755 16.7394 72.8724 16.7394C75.1656 16.7394 76.6019 17.9151 76.8932 20.4473C76.9308 20.7637 76.949 21.1074 76.949 21.4693V32.0477H80.1629L82.7873 28.4036V20.577C82.7873 14.4644 79.1944 11.708 74.443 11.708Z" fill="white"/>
<path d="M113.118 3.99866L84.4922 32.0488H93.4022L96.0175 28.3307L110.83 7.25583L113.118 3.99866Z" fill="white"/>
<path d="M104.681 3.99866L103.765 5.27103L89.3996 25.2283L84.4922 32.0488L113.118 3.99866H104.681Z" fill="white"/>
<path d="M110.284 27.1504L109.915 26.6269C109.606 26.1899 109.104 25.9304 108.572 25.9304H101.838C101.588 25.9304 101.395 26.0784 101.303 26.2753L113.75 32.0487L110.284 27.1504Z" fill="white"/>
<path d="M101.303 26.2755C101.221 26.4508 101.22 26.6647 101.342 26.8514L102.724 28.9557H102.728L104.761 32.049H113.751L101.304 26.2755H101.303Z" fill="white"/>
<path d="M97.2549 9.19064L95.1233 6.06093L93.7189 3.99988H84.9238L97.1172 9.99867C97.3562 9.81999 97.4461 9.47174 97.256 9.19064H97.2549Z" fill="white"/>
<path d="M84.9229 3.99869L88.6751 9.40797C88.691 9.42959 88.7058 9.4478 88.7217 9.46942C89.0324 9.87572 89.5138 10.1158 90.0283 10.1158H96.7657C96.9034 10.1158 97.0206 10.0681 97.1173 9.99635L84.924 3.99756L84.9229 3.99869Z" fill="white"/>
<path d="M125.491 5.07007H123.122V11.284H121.521V5.07007H119.184V3.88647H125.491V5.07007ZM128.483 3.88647L130.472 9.22911L132.453 3.88647H134.548V11.284H132.93V9.22911L133.108 5.72763L131.014 11.284H129.922L127.836 5.73585L127.998 9.22911V11.284H126.405V3.88647H128.483Z" fill="white"/>
<defs>
<linearGradient id="paint0_linear_5815_236" x1="63.1937" y1="5.86168" x2="62.052" y2="7.14689" gradientUnits="userSpaceOnUse">
<stop stop-color="#0080D4"/>
<stop offset="0.47" stop-color="white"/>
<stop offset="0.6" stop-color="#F1F8FC"/>
<stop offset="1" stop-color="#007DCC"/>
</linearGradient>
</defs>
</svg>
